<svg xmlns="http://www.w3.org/2000/svg" viewBox="0 0 800 600">
  <!-- Background -->
  <rect width="800" height="600" fill="#f5f5f5"/>
  
  <!-- Header -->
  <rect x="0" y="0" width="800" height="70" fill="#333333"/>
  <circle cx="50" cy="35" r="25" fill="#4a90e2"/>
  <text x="100" y="45" font-family="Arial" font-size="24" fill="white">Your Name</text>
  
  <!-- Navigation Tabs -->
  <rect x="400" y="25" width="70" height="30" rx="5" fill="#4a90e2"/>
  <text x="415" y="45" font-family="Arial" font-size="14" fill="white">About</text>
  
  <rect x="480" y="25" width="70" height="30" rx="5" fill="#333333"/>
  <text x="490" y="45" font-family="Arial" font-size="14" fill="white">Projects</text>
  
  <rect x="560" y="25" width="70" height="30" rx="5" fill="#333333"/>
  <text x="570" y="45" font-family="Arial" font-size="14" fill="white">Hobbies</text>
  
  <rect x="640" y="25" width="70" height="30" rx="5" fill="#333333"/>
  <text x="650" y="45" font-family="Arial" font-size="14" fill="white">Contact</text>
  
  <!-- Hero Section -->
  <rect x="50" y="100" width="700" height="200" fill="#4a90e2" opacity="0.1"/>
  <text x="100" y="150" font-family="Arial" font-size="36" fill="#333333">Welcome to My Website</text>
  <text x="100" y="190" font-family="Arial" font-size="18" fill="#666666">Web Developer | Designer | Your Title</text>
  <rect x="100" y="220" width="150" height="40" rx="20" fill="#4a90e2"/>
  <text x="130" y="245" font-family="Arial" font-size="16" fill="white">View Projects</text>
  
  <!-- About Section -->
  <text x="100" y="350" font-family="Arial" font-size="24" fill="#333333">About Me</text>
  <rect x="100" y="370" width="50" height="4" fill="#4a90e2"/>
  <rect x="100" y="390" width="600" height="60" fill="#e0e0e0" opacity="0.5"/>
  <text x="120" y="410" font-family="Arial" font-size="14" fill="#666666">Lorem ipsum dolor sit amet, consectetur adipiscing elit. Sed euismod, justo eu ultricies tristique.</text>
  <text x="120" y="430" font-family="Arial" font-size="14" fill="#666666">Nullam auctor, magna sit amet sollicitudin lacinia, nunc est placerat nunc.</text>
  
  <!-- Projects Preview -->
  <text x="100" y="490" font-family="Arial" font-size="24" fill="#333333">Projects</text>
  <rect x="100" y="510" width="50" height="4" fill="#4a90e2"/>
  <rect x="100" y="530" width="180" height="120" rx="5" fill="#e0e0e0"/>
  <rect x="300" y="530" width="180" height="120" rx="5" fill="#e0e0e0"/>
  <rect x="500" y="530" width="180" height="120" rx="5" fill="#e0e0e0"/>
  
  <!-- Footer -->
  <rect x="0" y="700" width="800" height="50" fill="#333333"/>
  <text x="300" y="730" font-family="Arial" font-size="14" fill="white">© 2025 Your Name. All rights reserved.</text>
</svg>
